<svg width="52" height="56" viewBox="0 0 52 56" fill="none" xmlns="http://www.w3.org/2000/svg">
<path d="M26.0007 42.6398C22.8533 38.681 21.0027 35.2111 20.3892 32.2423C17.5772 21.2424 34.4317 21.2424 31.6197 32.2423C30.9401 35.2736 29.0895 38.7423 26.0082 42.6398H26.0007ZM43.2281 51.7935C37.9832 54.0822 32.7944 50.4335 28.3513 45.4848C41.3077 29.2261 34.1012 20.4849 26.0007 20.4849C19.1521 20.4849 15.3812 26.2986 16.8626 33.0473C17.7268 36.6961 20.0088 40.846 23.6501 45.4848C19.5936 49.991 16.0995 52.071 13.0319 52.3497C6.79683 53.2785 1.9198 47.2172 4.14071 40.9635C6.02369 36.0686 18.0722 12.0662 18.5898 10.7687C20.5538 7.00996 21.7771 3.59373 25.9945 3.59373C30.0273 3.59373 31.4065 6.83621 33.5226 11.0774C38.0118 19.9049 44.6646 33.2623 47.8432 40.9635C49.4855 45.0973 47.6724 49.8747 43.2281 51.7935ZM49.089 34.7786C33.0176 0.49125 32.1272 0 26.0007 0C20.3243 0 17.9114 3.95873 15.4436 9.0987C2.20536 35.6373 0.922195 39.3985 0.811211 39.726C-2.33373 48.3922 4.1457 55.9997 11.9881 55.9997C14.6954 55.9997 19.5462 55.2422 26.0007 48.1997C33.3181 56.1722 38.6279 55.9997 40.0133 55.9997C47.8557 56.006 54.3351 48.3922 51.1877 39.726C51.1902 39.2398 49.0902 34.8636 49.0902 34.7786H49.089Z" fill="#CAAC00"/>
</svg>
